<?xml version="1.0" encoding="utf-8"?>
<!-- Generator: Adobe Illustrator 22.1.0, SVG Export Plug-In . SVG Version: 6.00 Build 0)  -->
<svg version="1.1" id="Layer_1" xmlns="http://www.w3.org/2000/svg" xmlns:xlink="http://www.w3.org/1999/xlink" x="0px" y="0px"
	 viewBox="0 0 72 72" style="enable-background:new 0 0 72 72;" xml:space="preserve">
<style type="text/css">
	.st0{fill:#808080;}
</style>
<title>Artboard 1</title>
<path class="st0" d="M36,7.3c9.4,0,10.5,0,14.2,0.2c2.2,0,4.4,0.4,6.5,1.2c1.5,0.6,2.9,1.5,4,2.6c1.2,1.1,2.1,2.5,2.6,4
	c0.8,2.1,1.2,4.3,1.2,6.5c0.2,3.7,0.2,4.8,0.2,14.2s0,10.5-0.2,14.2c0,2.2-0.4,4.4-1.2,6.5c-1.2,3.1-3.6,5.5-6.7,6.7
	c-2.1,0.8-4.3,1.2-6.5,1.2c-3.7,0.2-4.8,0.2-14.2,0.2s-10.5,0-14.2-0.2c-2.2,0-4.4-0.4-6.5-1.2c-1.5-0.6-2.9-1.5-4-2.6
	c-1.2-1.1-2.1-2.5-2.6-4c-0.8-2.1-1.2-4.3-1.2-6.5C7.3,46.5,7.3,45.4,7.3,36s0-10.5,0.2-14.2c0-2.2,0.4-4.4,1.2-6.5
	c0.6-1.5,1.5-2.9,2.6-4c1.1-1.2,2.5-2.1,4-2.6c2.1-0.8,4.3-1.2,6.5-1.2C25.5,7.3,26.6,7.3,36,7.3 M36,1c-9.5,0-10.7,0-14.5,0.2
	c-2.9,0-5.8,0.6-8.5,1.6C8.3,4.6,4.6,8.3,2.8,13c-1,2.7-1.6,5.6-1.6,8.5C1,25.3,1,26.5,1,36s0,10.7,0.2,14.5c0,2.9,0.6,5.8,1.6,8.5
	c1.8,4.7,5.5,8.4,10.2,10.2c2.7,1,5.6,1.6,8.5,1.6C25.2,71,26.4,71,36,71s10.7,0,14.5-0.2c2.9,0,5.8-0.6,8.6-1.6
	c4.7-1.8,8.4-5.5,10.2-10.2c1-2.7,1.6-5.6,1.6-8.5C71,46.7,71,45.6,71,36s0-10.7-0.2-14.5c0-2.9-0.6-5.8-1.6-8.6
	C67.4,8.3,63.7,4.6,59,2.8c-2.7-1-5.6-1.6-8.5-1.6C46.7,1,45.5,1,36,1z"/>
<path class="st0" d="M36,18c-9.9,0-18,8.1-18,18s8.1,18,18,18s18-8.1,18-18S45.9,18,36,18z M36,47.7c-6.5,0-11.7-5.2-11.7-11.7
	S29.5,24.3,36,24.3S47.7,29.5,47.7,36l0,0C47.7,42.5,42.5,47.7,36,47.7z"/>
<circle class="st0" cx="54.7" cy="17.3" r="4.2"/>
</svg>
