<svg id="Layer_1" data-name="Layer 1" xmlns="http://www.w3.org/2000/svg" viewBox="0 0 72 72"><defs><style>.cls-1{fill:#231f20;}</style></defs><title>Artboard 1</title><path class="cls-1" d="M36,7.26c9.36,0,10.47,0,14.16.21a19.19,19.19,0,0,1,6.51,1.21,10.66,10.66,0,0,1,4,2.62,10.66,10.66,0,0,1,2.62,4,19.19,19.19,0,0,1,1.21,6.51c.17,3.69.21,4.8.21,14.16s0,10.47-.21,14.16a19.19,19.19,0,0,1-1.21,6.51,11.59,11.59,0,0,1-6.65,6.65,19.19,19.19,0,0,1-6.51,1.21c-3.69.17-4.8.21-14.16.21s-10.47,0-14.16-.21a19.19,19.19,0,0,1-6.51-1.21,10.66,10.66,0,0,1-4-2.62,10.66,10.66,0,0,1-2.62-4,19.19,19.19,0,0,1-1.21-6.51c-.17-3.69-.21-4.8-.21-14.16s0-10.47.21-14.16a19.19,19.19,0,0,1,1.21-6.51,10.66,10.66,0,0,1,2.62-4,10.66,10.66,0,0,1,4-2.62,19.19,19.19,0,0,1,6.51-1.21c3.69-.17,4.8-.21,14.16-.21M36,1c-9.52,0-10.71,0-14.45.21A25.65,25.65,0,0,0,13,2.79,17.88,17.88,0,0,0,2.79,13a25.65,25.65,0,0,0-1.63,8.51C1,25.29,1,26.48,1,36s0,10.71.21,14.45A25.65,25.65,0,0,0,2.79,59,17.88,17.88,0,0,0,13,69.21a25.65,25.65,0,0,0,8.51,1.63c3.74.17,4.93.21,14.45.21s10.71,0,14.45-.21A25.65,25.65,0,0,0,59,69.21,17.88,17.88,0,0,0,69.21,59a25.65,25.65,0,0,0,1.63-8.51c.17-3.74.21-4.93.21-14.45s0-10.71-.21-14.45A25.65,25.65,0,0,0,69.21,13,17.88,17.88,0,0,0,59,2.79a25.65,25.65,0,0,0-8.51-1.63C46.71,1,45.52,1,36,1Z"/><path class="cls-1" d="M36,18A18,18,0,1,0,54,36,18,18,0,0,0,36,18Zm0,29.68A11.68,11.68,0,1,1,47.68,36,11.68,11.68,0,0,1,36,47.68Z"/><circle class="cls-1" cx="54.71" cy="17.29" r="4.21"/></svg>